<svg xmlns="http://www.w3.org/2000/svg" viewBox="0 0 64 64" role="img" aria-label="LehkoTrack logo">
  <defs>
    <linearGradient id="g" x1="0%" y1="0%" x2="100%" y2="100%">
      <stop offset="0%" stop-color="#7c3aed" />
      <stop offset="100%" stop-color="#4f46e5" />
    </linearGradient>
  </defs>
  <rect x="2" y="2" width="60" height="60" rx="14" fill="url(#g)" />
  <path d="M20 33c0-7 5-12 12-12 4 0 7 1 10 4l-4 4c-2-2-3-3-6-3-4 0-7 3-7 7s3 7 7 7c3 0 5-1 7-3l4 4c-3 3-7 4-11 4-7 0-12-5-12-12z" fill="#fff"/>
</svg>
